<svg xmlns="http://www.w3.org/2000/svg" width="32" height="32" viewBox="0 0 32 32">
  <g id="near-miss-large-icon" transform="translate(-868 -629)">
    <rect id="Rectangle_17178" data-name="Rectangle 17178" width="32" height="32" transform="translate(868 629)" fill="none"/>
    <g id="Group_6358" data-name="Group 6358" transform="translate(880.315 630.379) rotate(18)">
      <g id="Group_5537" data-name="Group 5537" transform="translate(0 0)">
        <g id="Group_5535" data-name="Group 5535" transform="translate(0.362 4.806)">
          <g id="Group_5520" data-name="Group 5520" transform="translate(0 0)">
            <g id="Group_5533" data-name="Group 5533">
              <g id="Group_5519" data-name="Group 5519">
                <path id="Path_4703" data-name="Path 4703" d="M7.551,3.14,6.464,1.364A1.881,1.881,0,0,0,4.869.471H3.158A1.858,1.858,0,0,0,1.367,1.8L.482,4.743a1.874,1.874,0,0,0,.91,2.188L3.346,7.974a1.867,1.867,0,0,0,1.755,0l.991-.525a1.877,1.877,0,0,0,.837-.9l.739-1.684A1.87,1.87,0,0,0,7.551,3.14ZM2.181,2.046a1.014,1.014,0,0,1,.977-.726h.1a.75.75,0,0,1-1.125.989l-.022-.021Zm4.71,2.48L6.151,6.21a1.024,1.024,0,0,1-.457.492L4.7,7.227a1.019,1.019,0,0,1-.958,0L1.791,6.182a1.023,1.023,0,0,1-.5-1.194l.551-1.83A1.6,1.6,0,0,0,4.2,1.32h.672a1.026,1.026,0,0,1,.87.488L6.826,3.583A1.021,1.021,0,0,1,6.89,4.526Z" fill="#e74c3c"/>
              </g>
            </g>
            <g id="Group_5534" data-name="Group 5534">
              <g id="Group_5519-2" data-name="Group 5519">
                <path id="Path_4703-2" data-name="Path 4703" d="M7.551,3.14,6.464,1.364A1.881,1.881,0,0,0,4.869.471H3.158A1.858,1.858,0,0,0,1.367,1.8L.482,4.743a1.874,1.874,0,0,0,.91,2.188L3.346,7.974a1.867,1.867,0,0,0,1.755,0l.991-.525a1.877,1.877,0,0,0,.837-.9l.739-1.684A1.87,1.87,0,0,0,7.551,3.14ZM2.181,2.046a1.014,1.014,0,0,1,.977-.726h.1a.75.75,0,0,1-1.125.989l-.022-.021Zm4.71,2.48L6.151,6.21a1.024,1.024,0,0,1-.457.492L4.7,7.227a1.019,1.019,0,0,1-.958,0L1.791,6.182a1.023,1.023,0,0,1-.5-1.194l.551-1.83A1.6,1.6,0,0,0,4.2,1.32h.672a1.026,1.026,0,0,1,.87.488L6.826,3.583A1.021,1.021,0,0,1,6.89,4.526Z" fill="#e74c3c"/>
              </g>
            </g>
          </g>
          <g id="Group_5522" data-name="Group 5522" transform="translate(3.153 3.814)">
            <g id="Group_5521" data-name="Group 5521" transform="translate(0 0)">
              <path id="Path_4704" data-name="Path 4704" d="M1.384.137A1.274,1.274,0,1,0,2.658,1.411,1.276,1.276,0,0,0,1.384.137Zm0,1.7a.425.425,0,1,1,.425-.425A.425.425,0,0,1,1.384,1.836Z" fill="#e74c3c"/>
            </g>
          </g>
        </g>
        <g id="Group_5524" data-name="Group 5524" transform="translate(4.203 0.771)">
          <g id="Group_5523" data-name="Group 5523" transform="translate(0 0)">
            <path id="Path_4705" data-name="Path 4705" d="M3.808.459a.425.425,0,0,0-.6,0L.394,3.272a.425.425,0,0,0,.6.6L3.808,1.06A.425.425,0,0,0,3.808.459Z" fill="#e74c3c"/>
          </g>
        </g>
        <g id="Group_5526" data-name="Group 5526" transform="translate(8.233 0.782)">
          <g id="Group_5525" data-name="Group 5525">
            <path id="Path_4706" data-name="Path 4706" d="M3.688.448a.425.425,0,0,0-.6,0l-2.7,2.7a.425.425,0,0,0,.6.6l2.7-2.7A.425.425,0,0,0,3.688.448Z" fill="#e74c3c"/>
          </g>
        </g>
        <g id="Group_5528" data-name="Group 5528" transform="translate(7.438 4.781)">
          <g id="Group_5527" data-name="Group 5527" transform="translate(0 0)">
            <path id="Path_4707" data-name="Path 4707" d="M.762.17a.425.425,0,0,0-.6,0,.425.425,0,0,0,0,.6.425.425,0,0,0,.6,0,.426.426,0,0,0,0-.6Z" fill="#e74c3c"/>
          </g>
        </g>
        <g id="Group_5530" data-name="Group 5530" transform="translate(12.533 1.227)">
          <g id="Group_5529" data-name="Group 5529" transform="translate(0 0)">
            <path id="Path_4708" data-name="Path 4708" d="M2.264.313a.425.425,0,0,0-.6,0L.276,1.7a.425.425,0,0,0,.6.6L2.264.913A.425.425,0,0,0,2.264.313Z" fill="#e74c3c"/>
          </g>
        </g>
        <g id="Group_5532" data-name="Group 5532" transform="translate(8.193 3.435)">
          <g id="Group_5531" data-name="Group 5531" transform="translate(0 0)">
            <path id="Path_4709" data-name="Path 4709" d="M4.211.5a.425.425,0,0,0-.6,0L.425,3.683a.425.425,0,0,0,.6.6L4.211,1.1A.425.425,0,0,0,4.211.5Z" fill="#e74c3c"/>
          </g>
        </g>
        <g id="Group_5536" data-name="Group 5536" transform="translate(8.156 10.379) rotate(30)">
          <g id="Group_5520-2" data-name="Group 5520" transform="translate(0 0)">
            <g id="Group_5533-2" data-name="Group 5533" transform="translate(0)">
              <g id="Group_5519-3" data-name="Group 5519">
                <path id="Path_4703-3" data-name="Path 4703" d="M6.416,3.47l-.845-1.9A1.439,1.439,0,0,0,4.331.616H3c-.646,0-1.206.572-1.392,1.422L.92,5.183a2.357,2.357,0,0,0,.708,2.339l1.52,1.115a1.111,1.111,0,0,0,1.365,0l.771-.561a1.9,1.9,0,0,0,.651-.963l.574-1.8A2.666,2.666,0,0,0,6.416,3.47ZM2.241,2.3c.1-.464.407-.776.76-.776h.076a1,1,0,0,1,.125.5.963.963,0,0,1-.175.564.51.51,0,0,1-.414.229A.519.519,0,0,1,2.2,2.582l-.017-.022ZM5.9,4.951l-.574,1.8a1.034,1.034,0,0,1-.355.526L4.2,7.838a.606.606,0,0,1-.745,0L1.938,6.721a1.286,1.286,0,0,1-.386-1.276l.428-1.956a1,1,0,0,0,.638.241,1.094,1.094,0,0,0,.87-.487,2.052,2.052,0,0,0,.374-1.2,2.317,2.317,0,0,0-.053-.514h.522a.785.785,0,0,1,.677.521l.845,1.9A1.455,1.455,0,0,1,5.9,4.951Z" fill="#e74c3c"/>
              </g>
            </g>
            <g id="Group_5534-2" data-name="Group 5534" transform="translate(0)">
              <g id="Group_5519-4" data-name="Group 5519">
                <path id="Path_4703-4" data-name="Path 4703" d="M6.416,3.47l-.845-1.9A1.439,1.439,0,0,0,4.331.616H3c-.646,0-1.206.572-1.392,1.422L.92,5.183a2.357,2.357,0,0,0,.708,2.339l1.52,1.115a1.111,1.111,0,0,0,1.365,0l.771-.561a1.9,1.9,0,0,0,.651-.963l.574-1.8A2.666,2.666,0,0,0,6.416,3.47ZM2.241,2.3c.1-.464.407-.776.76-.776h.076a1,1,0,0,1,.125.5.963.963,0,0,1-.175.564.51.51,0,0,1-.414.229A.519.519,0,0,1,2.2,2.582l-.017-.022ZM5.9,4.951l-.574,1.8a1.034,1.034,0,0,1-.355.526L4.2,7.838a.606.606,0,0,1-.745,0L1.938,6.721a1.286,1.286,0,0,1-.386-1.276l.428-1.956a1,1,0,0,0,.638.241,1.094,1.094,0,0,0,.87-.487,2.052,2.052,0,0,0,.374-1.2,2.317,2.317,0,0,0-.053-.514h.522a.785.785,0,0,1,.677.521l.845,1.9A1.455,1.455,0,0,1,5.9,4.951Z" fill="#e74c3c"/>
              </g>
            </g>
          </g>
          <g id="Group_5522-2" data-name="Group 5522" transform="translate(2.52 4.232)">
            <g id="Group_5521-2" data-name="Group 5521" transform="translate(0 0)">
              <path id="Path_4704-2" data-name="Path 4704" d="M1.5.223A1.274,1.274,0,1,0,2.777,1.5,1.276,1.276,0,0,0,1.5.223Zm0,1.7A.425.425,0,1,1,1.928,1.5.425.425,0,0,1,1.5,1.922Z" transform="translate(0 0)" fill="#e74c3c"/>
            </g>
          </g>
        </g>
      </g>
      <g id="Group_5562" data-name="Group 5562" transform="translate(1.45 17.839)">
        <g id="Group_5559" data-name="Group 5559" transform="translate(0 0)">
          <g id="Group_5523-2" data-name="Group 5523">
            <path id="Path_4705-2" data-name="Path 4705" d="M3.808.459a.425.425,0,0,0-.6,0L.394,3.272a.425.425,0,0,0,.6.6L3.808,1.06A.425.425,0,0,0,3.808.459Z" fill="#e74c3c"/>
          </g>
        </g>
        <g id="Group_5560" data-name="Group 5560" transform="translate(1.276 2.213)">
          <g id="Group_5525-2" data-name="Group 5525">
            <path id="Path_4706-2" data-name="Path 4706" d="M3.688.448a.425.425,0,0,0-.6,0l-2.7,2.7a.425.425,0,0,0,.6.6l2.7-2.7A.425.425,0,0,0,3.688.448Z" fill="#e74c3c"/>
          </g>
        </g>
        <g id="Group_5561" data-name="Group 5561" transform="translate(0.482 6.212)">
          <g id="Group_5527-2" data-name="Group 5527" transform="translate(0 0)">
            <path id="Path_4707-2" data-name="Path 4707" d="M.762.17a.425.425,0,0,0-.6,0,.425.425,0,0,0,0,.6.425.425,0,0,0,.6,0,.426.426,0,0,0,0-.6Z" fill="#e74c3c"/>
          </g>
        </g>
      </g>
    </g>
  </g>
</svg>
