<svg xmlns="http://www.w3.org/2000/svg" width="32" height="32" viewBox="0 0 32 32">
  <g id="LSR-large-icon" transform="translate(-847 -733)">
    <rect id="Rectangle_17179" data-name="Rectangle 17179" width="32" height="32" transform="translate(847 733)" fill="none"/>
    <g id="life-guard" transform="translate(849.667 735.667)">
      <g id="Group_5550" data-name="Group 5550" transform="translate(6.244 23.751)">
        <path id="Path_4715" data-name="Path 4715" d="M12.709,24.295A13.26,13.26,0,0,1,5.89,22.414a.556.556,0,0,1,.571-.955,12.39,12.39,0,0,0,12.5,0,.556.556,0,0,1,.571.955,13.26,13.26,0,0,1-6.819,1.881Z" transform="translate(-5.62 -21.379)" fill="#fc9121"/>
      </g>
      <g id="Group_5551" data-name="Group 5551" transform="translate(6.244)">
        <path id="Path_4716" data-name="Path 4716" d="M19.242,2.911a.553.553,0,0,1-.286-.079,12.39,12.39,0,0,0-12.5,0,.556.556,0,0,1-.571-.955,13.511,13.511,0,0,1,13.637,0,.557.557,0,0,1,.191.763A.55.55,0,0,1,19.242,2.911Z" transform="translate(-5.62 -0.031)" fill="#fc9121"/>
      </g>
      <g id="Group_5552" data-name="Group 5552" transform="translate(23.755 6.217)">
        <path id="Path_4717" data-name="Path 4717" d="M21.936,19.816a.556.556,0,0,1-.477-.842,12.23,12.23,0,0,0,0-12.512.556.556,0,1,1,.953-.572,13.345,13.345,0,0,1,0,13.656A.556.556,0,0,1,21.936,19.816Z" transform="translate(-21.379 -5.62)" fill="#fc9121"/>
      </g>
      <g id="Group_5553" data-name="Group 5553" transform="translate(0 6.217)">
        <path id="Path_4718" data-name="Path 4718" d="M2.356,19.816a.553.553,0,0,1-.477-.27,13.345,13.345,0,0,1,0-13.656.556.556,0,1,1,.953.572,12.23,12.23,0,0,0,0,12.512.556.556,0,0,1-.477.842Z" transform="translate(0 -5.62)" fill="#fc9121"/>
      </g>
      <g id="Group_5554" data-name="Group 5554" transform="translate(6.667 6.641)">
        <path id="Path_4719" data-name="Path 4719" d="M12.667,19.351a6.675,6.675,0,1,1,6.667-6.675A6.678,6.678,0,0,1,12.667,19.351Zm0-12.238a5.563,5.563,0,1,0,5.556,5.563A5.565,5.565,0,0,0,12.667,7.113Z" transform="translate(-6 -6)" fill="#fc9121"/>
      </g>
      <g id="Group_5555" data-name="Group 5555" transform="translate(14.6 14.585)">
        <path id="Path_4720" data-name="Path 4720" d="M19.618,23.711a2.762,2.762,0,0,1-1.964-.814L13.3,18.54a.556.556,0,1,1,.786-.787l4.351,4.357a1.7,1.7,0,0,0,2.357,0l1.3-1.3a1.673,1.673,0,0,0,0-2.361L17.747,14.09a.556.556,0,1,1,.786-.787l4.351,4.357a2.787,2.787,0,0,1,0,3.934l-1.3,1.3a2.758,2.758,0,0,1-1.963.814Z" transform="translate(-13.14 -13.141)" fill="#fc9121"/>
      </g>
      <g id="Group_5556" data-name="Group 5556" transform="translate(1.511 1.503)">
        <path id="Path_4721" data-name="Path 4721" d="M7.193,12.2a.558.558,0,0,1-.393-.162L2.172,7.408a2.787,2.787,0,0,1,0-3.934l1.3-1.3a2.841,2.841,0,0,1,3.928,0l4.629,4.635a.556.556,0,0,1-.786.787L6.617,2.957a1.705,1.705,0,0,0-2.357,0l-1.3,1.3a1.673,1.673,0,0,0,0,2.361l4.629,4.635a.556.556,0,0,1-.393.949Z" transform="translate(-1.36 -1.383)" fill="#fc9121"/>
      </g>
      <g id="Group_5557" data-name="Group 5557" transform="translate(1.51 14.585)">
        <path id="Path_4722" data-name="Path 4722" d="M5.438,23.711A2.758,2.758,0,0,1,3.473,22.9l-1.3-1.3a2.787,2.787,0,0,1,0-3.934L6.522,13.3a.556.556,0,1,1,.786.787L2.957,18.447a1.673,1.673,0,0,0,0,2.361l1.3,1.3a1.705,1.705,0,0,0,2.357,0l4.351-4.357a.556.556,0,1,1,.786.787L7.4,22.9a2.762,2.762,0,0,1-1.963.814Z" transform="translate(-1.359 -13.141)" fill="#fc9121"/>
      </g>
      <g id="Group_5558" data-name="Group 5558" transform="translate(14.6 1.504)">
        <path id="Path_4723" data-name="Path 4723" d="M18.14,11.927a.556.556,0,0,1-.393-.949L22.1,6.621a1.673,1.673,0,0,0,0-2.361l-1.3-1.3a1.7,1.7,0,0,0-2.357,0L14.088,7.314a.556.556,0,0,1-.786-.787l4.351-4.357a2.843,2.843,0,0,1,3.928,0l1.3,1.3a2.787,2.787,0,0,1,0,3.934l-4.351,4.357a.553.553,0,0,1-.392.162Z" transform="translate(-13.14 -1.383)" fill="#fc9121"/>
      </g>
    </g>
  </g>
</svg>
