<svg xmlns="http://www.w3.org/2000/svg" width="24" height="24" viewBox="0 0 24 24">
  <g id="project-icon" transform="translate(-1766 -432)">
    <rect id="Rectangle_17155" data-name="Rectangle 17155" width="24" height="24" transform="translate(1766 432)" fill="none"/>
    <g id="puzzle" transform="translate(1768 434)">
      <path id="Path_6813" data-name="Path 6813" d="M9.414,215.311v-2.357h-.3a2.35,2.35,0,0,1,0-4.7h.3V205.9H6.471a.586.586,0,0,1-.586-.586v-.882a1.178,1.178,0,1,0-2.357,0v.882a.586.586,0,0,1-.586.586H0v8.236a1.18,1.18,0,0,0,1.178,1.178Z" transform="translate(0 -195.311)" fill="#4ba735"/>
      <path id="Path_6814" data-name="Path 6814" d="M214.132,280.414a1.18,1.18,0,0,0,1.178-1.178V271h-2.357v.3a2.35,2.35,0,0,1-4.7,0V271H205.9v2.943a.586.586,0,0,1-.586.586h-.882a1.178,1.178,0,1,0,0,2.357h.882a.586.586,0,0,1,.586.586v2.943Z" transform="translate(-195.311 -260.414)" fill="#112565"/>
      <path id="Path_6815" data-name="Path 6815" d="M275.707,12.061a1.18,1.18,0,0,0,1.178-1.178V10a.586.586,0,0,1,.586-.586h2.943V1.178A1.18,1.18,0,0,0,279.236,0H271V2.357h.3a2.35,2.35,0,0,1,0,4.7H271V9.414h2.943a.586.586,0,0,1,.586.586v.882A1.18,1.18,0,0,0,275.707,12.061Z" transform="translate(-260.414 0)" fill="#4ba735"/>
      <path id="Path_6816" data-name="Path 6816" d="M1.178,0A1.18,1.18,0,0,0,0,1.178V9.414H2.357v-.3a2.35,2.35,0,1,1,4.7,0v.3H9.414V6.471A.586.586,0,0,1,10,5.885h.882a1.178,1.178,0,0,0,0-2.357H10a.586.586,0,0,1-.586-.586V0Z" transform="translate(0)" fill="#112565"/>
    </g>
  </g>
</svg>
