<svg xmlns="http://www.w3.org/2000/svg" width="24" height="24" viewBox="0 0 24 24">
  <g id="sor-icon" transform="translate(-1741 43)">
    <rect id="Rectangle_17150" data-name="Rectangle 17150" width="24" height="24" transform="translate(1741 -43)" fill="none"/>
    <g id="search" transform="translate(1735 -49)">
      <path id="Path_6551" data-name="Path 6551" d="M19.875,8H10.291A2.29,2.29,0,0,0,8,10.291V23.207A2.29,2.29,0,0,0,10.291,25.5h6.784a5.944,5.944,0,0,1-1.159-3.541,6.046,6.046,0,0,1,6.041-6.041,1.676,1.676,0,0,1,.209.009V10.291A2.29,2.29,0,0,0,19.875,8Zm-8.541,3.334h3.334a.833.833,0,1,1,0,1.666H11.332a.833.833,0,0,1,0-1.666ZM15.5,19.666H11.334a.833.833,0,1,1,0-1.666H15.5a.833.833,0,1,1,0,1.666Zm3.334-3.333h-7.5a.834.834,0,1,1,0-1.667h7.5a.834.834,0,1,1,0,1.667Z" fill="#112565"/>
      <g id="Group_6273" data-name="Group 6273" transform="translate(17.584 17.584)">
        <path id="Path_6552" data-name="Path 6552" d="M20.042,24.417a4.375,4.375,0,1,1,4.375-4.375A4.38,4.38,0,0,1,20.042,24.417Zm0-7.084a2.709,2.709,0,1,0,2.709,2.709A2.712,2.712,0,0,0,20.042,17.333Z" transform="translate(-15.667 -15.667)" fill="#4ba735"/>
        <path id="Path_6553" data-name="Path 6553" d="M24.041,24.875a.829.829,0,0,1-.589-.244l-2.709-2.709a.834.834,0,0,1,1.179-1.179l2.709,2.709a.833.833,0,0,1-.59,1.423Z" transform="translate(-14.459 -14.459)" fill="#4ba735"/>
      </g>
    </g>
  </g>
</svg>
