<svg xmlns="http://www.w3.org/2000/svg" width="24" height="24" viewBox="0 0 24 24">
  <g id="audit-icon" transform="translate(-1754 17)">
    <rect id="Rectangle_17156" data-name="Rectangle 17156" width="24" height="24" transform="translate(1754 -17)" fill="none"/>
    <g id="verify" transform="translate(1748 -23)">
      <g id="bold_1_" transform="translate(8 8)">
        <g id="Group_6274" data-name="Group 6274">
          <path id="Path_6563" data-name="Path 6563" d="M20.75,15.333a5.417,5.417,0,1,0,5.416,5.417A5.423,5.423,0,0,0,20.75,15.333ZM23.1,19.7l-2.709,3.125a.624.624,0,0,1-.45.215h-.022a.626.626,0,0,1-.443-.183L18.015,21.4a.625.625,0,0,1,.884-.884l.984.984,2.269-2.618a.626.626,0,0,1,.946.819Z" transform="translate(-6.167 -6.167)" fill="#969696"/>
          <path id="Path_6564" data-name="Path 6564" d="M19.041,8h-8.75A2.29,2.29,0,0,0,8,10.291V23.208A2.29,2.29,0,0,0,10.291,25.5h6.3a6.6,6.6,0,0,1-.675-2.916,6.389,6.389,0,0,1,.341-2.084c.046-.145.1-.284.161-.424a4.123,4.123,0,0,1-1.752.4,4.077,4.077,0,0,1-2.466-.816l2.909-2.909a.626.626,0,0,0,.184-.441V12.193a4.166,4.166,0,0,1,3.456,4.956c.029-.02.055-.045.085-.065a6.6,6.6,0,0,1,2.5-1.05V10.291A2.29,2.29,0,0,0,19.041,8Zm-5,8.05-2.725,2.725a4.08,4.08,0,0,1-.816-2.466,4.164,4.164,0,0,1,3.541-4.116Z" transform="translate(-8 -8)" fill="#969696"/>
        </g>
      </g>
    </g>
  </g>
</svg>
