<svg xmlns="http://www.w3.org/2000/svg" width="24" height="24" viewBox="0 0 24 24">
  <g id="incident-icon" transform="translate(-1742 58)">
    <rect id="Rectangle_17153" data-name="Rectangle 17153" width="24" height="24" transform="translate(1742 -58)" fill="none"/>
    <g id="injury" transform="translate(1735.999 -64.002)">
      <path id="Path_6559" data-name="Path 6559" d="M21.758,19.363a.909.909,0,0,1-.642-1.552l3.563-3.563a1.833,1.833,0,0,0,0-2.579L23.36,10.35a1.833,1.833,0,0,0-2.581,0l-3.561,3.561a.909.909,0,0,1-1.286-1.286L19.5,9.064a3.653,3.653,0,0,1,5.149,0l1.319,1.319a3.653,3.653,0,0,1,0,5.146L22.4,19.1A.9.9,0,0,1,21.758,19.363Z" transform="translate(0.972 0)" fill="#969696"/>
      <path id="Path_6560" data-name="Path 6560" d="M12.953,27.025a3.619,3.619,0,0,1-2.571-1.061L9.064,24.645a3.653,3.653,0,0,1,0-5.146l3.566-3.566a.909.909,0,0,1,1.286,1.286L10.35,20.782a1.833,1.833,0,0,0,0,2.579l1.319,1.319a1.833,1.833,0,0,0,2.581,0l3.561-3.561A.909.909,0,1,1,19.1,22.4l-3.563,3.563A3.656,3.656,0,0,1,12.953,27.025Z" transform="translate(0 0.973)" fill="#969696"/>
      <path id="Path_6561" data-name="Path 6561" d="M27.025,21.1,14.9,8.977a3.343,3.343,0,0,0-4.72,0L8.977,10.185a3.341,3.341,0,0,0,0,4.72L21.1,27.026a3.338,3.338,0,0,0,4.718,0l1.208-1.208a3.339,3.339,0,0,0,0-4.72ZM15.465,16.715a.833.833,0,1,1-1.178-1.179l1.25-1.25a.834.834,0,0,1,1.179,1.179Zm2.5,2.5a.833.833,0,0,1-1.178-1.179l1.25-1.25a.834.834,0,1,1,1.179,1.179Zm3.751,1.25-1.25,1.25a.833.833,0,1,1-1.178-1.179l1.25-1.25a.833.833,0,1,1,1.178,1.179Z" transform="translate(0)" fill="#969696"/>
    </g>
  </g>
</svg>
