<svg xmlns="http://www.w3.org/2000/svg" width="24" height="24" viewBox="0 0 24 24">
  <g id="risk-icon" transform="translate(-1743 17)">
    <rect id="Rectangle_17158" data-name="Rectangle 17158" width="24" height="24" transform="translate(1743 -17)" fill="none"/>
    <g id="error" transform="translate(1737 -23)">
      <g id="Group_6272" data-name="Group 6272" transform="translate(8 8)">
        <path id="Path_6539" data-name="Path 6539" d="M10.667,12.584a.834.834,0,0,1-.834-.834V8.834a.834.834,0,1,1,1.667,0V11.75A.834.834,0,0,1,10.667,12.584Z" transform="translate(-7.542 -8)" fill="#969696"/>
        <path id="Path_6540" data-name="Path 6540" d="M13.834,12.584A.834.834,0,0,1,13,11.75V8.834a.834.834,0,1,1,1.667,0V11.75A.835.835,0,0,1,13.834,12.584Z" transform="translate(-6.75 -8)" fill="#969696"/>
        <path id="Path_6541" data-name="Path 6541" d="M17,12.584a.834.834,0,0,1-.834-.834V8.834a.834.834,0,1,1,1.667,0V11.75A.834.834,0,0,1,17,12.584Z" transform="translate(-5.958 -8)" fill="#969696"/>
        <path id="Path_6542" data-name="Path 6542" d="M19.875,9.5H10.291A2.29,2.29,0,0,0,8,11.792V22.834a2.291,2.291,0,0,0,2.291,2.293h4.084a3.1,3.1,0,0,1,.425-.941l4.35-7.067a3.26,3.26,0,0,1,2.809-1.575,1.676,1.676,0,0,1,.209.009V11.793A2.292,2.292,0,0,0,19.875,9.5Zm-5.209,3.959a.833.833,0,1,1,0,1.666H11.333a.834.834,0,0,1,0-1.668h3.333Zm2.5,5H11.333a.834.834,0,0,1,0-1.668h5.834a.834.834,0,0,1,0,1.668Z" transform="translate(-8 -7.625)" fill="#969696"/>
      </g>
      <path id="Path_6543" data-name="Path 6543" d="M26.173,23.6l-4.4-7.146a1.632,1.632,0,0,0-2.79-.015L14.6,23.574a1.569,1.569,0,0,0-.263.879,1.634,1.634,0,0,0,1.635,1.629h8.814a1.63,1.63,0,0,0,1.634-1.626A1.549,1.549,0,0,0,26.173,23.6Zm-5.8.814a.834.834,0,1,1,.834-.834A.834.834,0,0,1,20.375,24.418Zm.833-2.918a.834.834,0,1,1-1.667,0V19.834a.834.834,0,1,1,1.667,0Z" transform="translate(1.584 1.918)" fill="#969696"/>
    </g>
  </g>
</svg>
