<svg xmlns="http://www.w3.org/2000/svg" width="24" height="24" viewBox="0 0 24 24">
  <g id="analytics-icon" transform="translate(-1699 -62)">
    <rect id="Rectangle_17161" data-name="Rectangle 17161" width="24" height="24" transform="translate(1699 62)" fill="none"/>
    <g id="pie-chart" transform="translate(1693.667 56)">
      <path id="Path_6555" data-name="Path 6555" d="M23.712,8H11.625a2.294,2.294,0,0,0-2.292,2.292v15.42A2.294,2.294,0,0,0,11.625,28H23.712A2.294,2.294,0,0,0,26,25.712V10.292A2.293,2.293,0,0,0,23.712,8ZM16.627,18.837v-4.1a4.158,4.158,0,1,1-3.087,7.449l2.9-2.9a.625.625,0,0,0,.184-.441Zm-1.25-4.1v3.846L12.656,21.3a4.134,4.134,0,0,1,2.721-6.567Zm7.5,10.982H12.46a.625.625,0,1,1,0-1.25H22.879a.625.625,0,0,1,0,1.25Zm0-2.709h-1.25a.625.625,0,0,1,0-1.25h1.25a.625.625,0,0,1,0,1.25Zm0-2.292h-1.25a.625.625,0,0,1,0-1.25h1.25a.625.625,0,0,1,0,1.25Zm0-2.5h-1.25a.625.625,0,0,1,0-1.25h1.25a.625.625,0,1,1,0,1.25Zm0-2.293h-1.25a.625.625,0,0,1,0-1.25h1.25a.625.625,0,0,1,0,1.25Z" fill="#969696"/>
    </g>
  </g>
</svg>
