<svg xmlns="http://www.w3.org/2000/svg" width="24" height="24" viewBox="0 0 24 24">
  <g id="my-responsibilities-icon" transform="translate(18564 4579)">
    <rect id="Rectangle_17282" data-name="Rectangle 17282" width="24" height="24" transform="translate(-18564 -4579)" fill="none"/>
    <g id="clipboard" transform="translate(-18611.434 -4577.001)">
      <g id="Group_6514" data-name="Group 6514" transform="translate(51.988 0.001)">
        <g id="Group_6513" data-name="Group 6513" transform="translate(0)">
          <rect id="Rectangle_17281" data-name="Rectangle 17281" width="2.311" height="2.054" transform="translate(2.311 7.164)" fill="#969696"/>
          <path id="Path_6837" data-name="Path 6837" d="M142.26,1.516H140.8a.411.411,0,0,1-.385-.308A1.489,1.489,0,0,0,138.9,0a1.515,1.515,0,0,0-1.515,1.232.385.385,0,0,1-.385.282h-1.412V4.084h6.675Z" transform="translate(-131.477 -0.001)" fill="#969696"/>
          <path id="Path_6838" data-name="Path 6838" d="M66.878,77.9V63.188a1.053,1.053,0,0,0-1.05-1.055l-.08,0H63.541v1.309c0,.205-.128.488-.334.488H55.634c-.205,0-.308-.282-.308-.488V62.135H53.118a1.053,1.053,0,0,0-1.127.973q0,.04,0,.08V77.9a1.155,1.155,0,0,0,1.129,1.181H65.749a1.155,1.155,0,0,0,1.13-1.18Zm-13.35-9.217V65.858a.385.385,0,0,1,.385-.385h3.081a.385.385,0,0,1,.385.385v2.824a.385.385,0,0,1-.385.385H53.914A.385.385,0,0,1,53.529,68.682Zm3.825,5.828-2,1.874a.359.359,0,0,1-.257.128.411.411,0,0,1-.282-.128L53.76,75.306a.391.391,0,0,1,.565-.539l.77.822,1.746-1.643a.385.385,0,0,1,.513.565Zm0-4.108h0l-2,1.874a.359.359,0,0,1-.257.128.411.411,0,0,1-.282-.128L53.76,71.2a.391.391,0,0,1,.565-.539l.77.822,1.746-1.643a.385.385,0,0,1,.513.565ZM64.825,76h-5.9a.385.385,0,0,1,0-.77h5.9a.385.385,0,0,1,0,.77Zm0-4.108h-5.9a.385.385,0,0,1,0-.77h5.9a.385.385,0,0,1,0,.77Zm0-4.108h-5.9a.385.385,0,0,1,0-.77h5.9a.385.385,0,0,1,0,.77Z" transform="translate(-51.988 -59.079)" fill="#969696"/>
        </g>
      </g>
    </g>
  </g>
</svg>
