<svg xmlns="http://www.w3.org/2000/svg" width="24" height="24" viewBox="0 0 24 24">
  <g id="lms-icon" transform="translate(-1699 -42)">
    <rect id="Rectangle_17159" data-name="Rectangle 17159" width="24" height="24" transform="translate(1699 42)" fill="none"/>
    <g id="desktop-computer" transform="translate(1693 36)">
      <path id="Path_6567" data-name="Path 6567" d="M21.294,9.123a3.186,3.186,0,0,0-4.378-.474,3.189,3.189,0,0,0-4.378.474.833.833,0,0,0-.206.549v6.666a.833.833,0,0,0,1.46.549c.842-.964,1.881-.476,2.6.1a.833.833,0,0,0,1.041,0c.721-.577,1.759-1.065,2.6-.1a.833.833,0,0,0,1.46-.549V9.671A.83.83,0,0,0,21.294,9.123ZM14,14.8V10.015a1.646,1.646,0,0,1,2.084.08V14.9a3.442,3.442,0,0,0-1.207-.24A2.9,2.9,0,0,0,14,14.8Zm5.832,0a3.159,3.159,0,0,0-2.084.1V10.1a1.643,1.643,0,0,1,2.084-.08Z" transform="translate(1.083 0)" fill="#969696"/>
      <path id="Path_6568" data-name="Path 6568" d="M26.541,10.667H24.25v1.666h2.084V21.5H9.666V12.333H11.75V10.667H9.459A1.465,1.465,0,0,0,8,12.124v11.25a1.466,1.466,0,0,0,1.459,1.459h6.384a3.843,3.843,0,0,1-1.05,1.791.393.393,0,0,0-.091.45.412.412,0,0,0,.382.259h5.834a.417.417,0,0,0,.384-.259.4.4,0,0,0-.091-.45,3.821,3.821,0,0,1-1.06-1.791h6.391A1.466,1.466,0,0,0,28,23.374V12.124A1.465,1.465,0,0,0,26.541,10.667Z" transform="translate(0 0.667)" fill="#969696"/>
    </g>
  </g>
</svg>
