<svg xmlns="http://www.w3.org/2000/svg" width="218.298" height="41.454" viewBox="0 0 218.298 41.454">
  <g id="Group_5458" data-name="Group 5458" transform="translate(-364.821 -458.623)">
    <g id="Group_4566" data-name="Group 4566" transform="translate(364.821 458.623)">
      <path id="Path_4208" data-name="Path 4208" d="M382.583,496.487a36.042,36.042,0,0,1-10.508-12.255,2.059,2.059,0,1,0-2.1,1.072,37.583,37.583,0,0,0,13.786,14.774q.6-.355,1.182-.735v-5.731l.324-.27a34.409,34.409,0,0,0,9.128-12.135h-2.61a31.765,31.765,0,0,1-8.025,10.326q-.606-.5-1.182-1.041v6Zm-1.518-7.516v3.323a35.288,35.288,0,0,1-8.594-12.607h-4.988a44.687,44.687,0,0,1-2.63-16.865,116.726,116.726,0,0,1,12.286-3.006,2.06,2.06,0,1,1,.406,2.315,94.925,94.925,0,0,0-10.37,2.476,42.407,42.407,0,0,0,1.989,12.716h4.92a34.079,34.079,0,0,0,6.981,11.648ZM373.573,475.8A38.421,38.421,0,0,1,372,468.116c5.3-1.372,9.033-1.981,12.943-1.826V461.6c5.116.2,10.461,1.606,15.407,3.009a42.423,42.423,0,0,1-.644,7.24,2.059,2.059,0,1,0,2.3.5,44.654,44.654,0,0,0,.664-9.525c-9.021-2.581-14.422-3.774-20.094-3.581v4.715a51.475,51.475,0,0,0-11.169,1.88l-1.951.505.2,2.006a40.747,40.747,0,0,0,1.451,7.458Zm21.486,3.882H392.5a38.159,38.159,0,0,0,3.024-11.571,55.635,55.635,0,0,0-9.06-1.729v-2.342a56.428,56.428,0,0,1,9.65,1.791l1.951.505-.2,2.006a40.742,40.742,0,0,1-1.929,8.976h4.889a41.439,41.439,0,0,1-10.268,17.461,2.1,2.1,0,0,1,.021.294,2.056,2.056,0,1,1-1.629-2.014,37.671,37.671,0,0,0,6.869-9.535,40.874,40.874,0,0,0,1.713-3.843h-2.476Zm-6.536,14.573a.819.819,0,1,1-.819.819.819.819,0,0,1,.819-.819Zm-17.446-11a.819.819,0,1,1-.819-.818.819.819,0,0,1,.819.818Zm28.609-9.515a.819.819,0,1,1,.819.818.818.818,0,0,1-.819-.818ZM379.007,461.5a.819.819,0,1,0-.819-.819A.819.819,0,0,0,379.007,461.5Z" transform="translate(-364.821 -458.623)" fill="#fff" fill-rule="evenodd"/>
      <path id="Path_4209" data-name="Path 4209" d="M418.168,514.516a32.98,32.98,0,0,0,9.161,18.471,32.982,32.982,0,0,0,9.161-18.471,34.139,34.139,0,0,0-18.322,0Z" transform="translate(-408.385 -503.243)" fill="#4ba735" fill-rule="evenodd"/>
    </g>
    <g id="Group_4572" data-name="Group 4572" transform="translate(409.353 462.762)">
      <g id="Group_4570" data-name="Group 4570" transform="translate(0)">
        <g id="Group_4569" data-name="Group 4569">
          <g id="Group_4567" data-name="Group 4567">
            <path id="Path_4210" data-name="Path 4210" d="M615.484,497.2l-1.232-.564c-1.557-.7-2.388-1.423-2.388-2.812a2.484,2.484,0,0,1,2.707-2.387,4.409,4.409,0,0,1,1.77.364l.5,3.09h2.409l.214-3.679a9.274,9.274,0,0,0-4.962-1.335c-3.979,0-6.526,1.914-6.526,5.066,0,2.906,1.781,4.467,4.877,5.877l1.112.508c1.583.7,2.266,1.332,2.266,2.717,0,1.423-1.01,2.5-2.88,2.5a6.813,6.813,0,0,1-2.572-.474l-.521-3.243h-2.447l-.158,3.9a11.492,11.492,0,0,0,5.7,1.373c4.488,0,6.86-2.194,6.86-5.292C620.213,500.157,618.836,498.709,615.484,497.2Z" transform="translate(-607.653 -488.284)" fill="#4ba735"/>
            <path id="Path_4211" data-name="Path 4211" d="M696.481,526.83c-.377,0-.593-.249-.593-.768v-5.889c0-3.517-1.332-4.941-4.7-4.941-3.782,0-5.9,1.48-6.034,3.666a1.644,1.644,0,0,0,1.769,1.315c1.012,0,1.861-.7,1.927-2.451l.119-1.141a6.912,6.912,0,0,1,.721-.037c1.676,0,2.127.687,2.127,3.014v.859c-.742.2-1.464.394-2,.551-4.049,1.173-5.083,2.487-5.083,4.356a3.156,3.156,0,0,0,3.443,3.358c1.793,0,2.623-.719,3.776-1.929a2.684,2.684,0,0,0,2.857,1.907,3.011,3.011,0,0,0,3.16-1.984l-.7-.464C696.97,526.688,696.757,526.83,696.481,526.83ZM690.2,526.6c-.886,0-1.578-.608-1.578-1.924a2.83,2.83,0,0,1,1.963-2.622,10.915,10.915,0,0,1,1.237-.449v4.266A2.758,2.758,0,0,1,690.2,526.6Z" transform="translate(-670.602 -508.989)" fill="#4ba735"/>
            <path id="Path_4212" data-name="Path 4212" d="M766.077,483.2a3.349,3.349,0,0,1,.436-.566l.221.309c.725,1.325,1.473,1.872,2.357,1.872a1.724,1.724,0,0,0,1.879-1.743c-.319-1.415-1.677-1.884-3.139-1.884a6.249,6.249,0,0,0-4.389,1.734,7.377,7.377,0,0,0-2.182,4.921l-1.755.222v1.565H761.2v5.377c0,1.333-.018,2.665-.046,4l-1.451.294v1.222h7.745V499.3l-2.02-.429c-.026-1.288-.043-2.576-.043-3.863v-5.377h2.752v-1.8h-2.818C765.253,485.692,765.446,484.239,766.077,483.2Z" transform="translate(-731.657 -481.191)" fill="#4ba735"/>
            <path id="Path_4213" data-name="Path 4213" d="M822.915,520.778c0-3.177-1.964-5.546-5.427-5.546a6.563,6.563,0,0,0-6.763,6.753c0,4.238,2.72,6.736,6.542,6.736a5.75,5.75,0,0,0,5.508-3.065l-.907-.852a4.217,4.217,0,0,1-3.183,1.41c-1.83,0-3.331-1.257-3.526-4.023h7.61A5.721,5.721,0,0,0,822.915,520.778Zm-5.5.027h-2.264c.127-3.189,1.057-4.221,2.073-4.221.953,0,1.778.854,1.778,2.578C819,520.333,818.676,520.8,817.415,520.8Z" transform="translate(-773.484 -508.989)" fill="#4ba735"/>
            <path id="Path_4214" data-name="Path 4214" d="M891.461,511.356a2.34,2.34,0,0,1-1.425.584c-.779,0-1.338-.559-1.338-1.792V502.8h2.752v-1.8h-2.74l.046-3.685h-2.679l-1.331,3.672-1.927.249V502.8h1.694v5c0,1.024-.026,1.727-.026,2.641,0,2.59,1.394,3.649,3.775,3.649a3.947,3.947,0,0,0,3.842-2.1Z" transform="translate(-832.356 -494.354)" fill="#4ba735"/>
            <path id="Path_4215" data-name="Path 4215" d="M946.691,517.4h-4.957v1.147l1.738.312-2.506,7.1-2.563-7.1,1.773-.32V517.4H932.7v1.147l1.235.214,5.241,12.335,0,.014a8.4,8.4,0,0,1-1.789,3.006l-.171-.25a2.551,2.551,0,0,0-2.258-1.218,2.053,2.053,0,0,0-2.169,1.69,2.546,2.546,0,0,0,2.712,1.979c2.437,0,3.624-1.787,4.916-5.149l4.755-12.354,1.527-.267Z" transform="translate(-873.087 -510.763)" fill="#4ba735"/>
          </g>
          <g id="Group_4568" data-name="Group 4568" transform="translate(74.579 1.593)">
            <path id="Path_4216" data-name="Path 4216" d="M1026.343,506.088a5.348,5.348,0,0,1-2.224.516c-2.779,0-5.144-2.246-5.144-7.594,0-5.367,2.464-7.65,5.271-7.65a4.116,4.116,0,0,1,1.885.458l.746,3.429h2l-.105-4.073a10.227,10.227,0,0,0-5.143-1.3c-4.931,0-9.3,2.9-9.3,9.115,0,6.134,4.064,9.115,9.122,9.115a11.313,11.313,0,0,0,5.513-1.336l.105-4.035h-2Z" transform="translate(-1014.324 -489.877)" fill="#fff"/>
            <path id="Path_4217" data-name="Path 4217" d="M1109.358,515.232a6.431,6.431,0,0,0-6.669,6.693c0,4.037,2.569,6.8,6.669,6.8,4.066,0,6.669-2.7,6.669-6.8A6.407,6.407,0,0,0,1109.358,515.232Zm0,12.118c-1.484,0-2.222-1.622-2.222-5.368,0-3.727.737-5.379,2.222-5.379s2.222,1.651,2.222,5.379C1111.58,525.728,1110.828,527.35,1109.358,527.35Z" transform="translate(-1086.484 -510.582)" fill="#fff"/>
            <path id="Path_4218" data-name="Path 4218" d="M1196,522.809v-3.06c0-3.03-1.512-4.517-3.789-4.517a5.227,5.227,0,0,0-4.2,2.183l-.156-1.9-.45-.282-5.182,1.746v1.033l1.609.236c.052,1.05.078,1.6.078,3.043v1.518c0,1.1-.012,2.7-.036,3.986l-1.417.306v1.222h6.911V527.1l-1.235-.262c-.025-1.291-.037-2.913-.037-4.03v-4.072a3.9,3.9,0,0,1,2.256-.966c1.045,0,1.467.6,1.467,2.283v2.755c0,1.138-.012,2.721-.036,3.991l-1.36.3v1.222h6.929V527.1l-1.312-.268C1196.013,525.557,1196,523.956,1196,522.809Z" transform="translate(-1151.431 -510.582)" fill="#fff"/>
            <path id="Path_4219" data-name="Path 4219" d="M1284.207,522.809v-3.06c0-3.03-1.512-4.517-3.789-4.517a5.227,5.227,0,0,0-4.2,2.183l-.156-1.9-.45-.282-5.182,1.746v1.033l1.608.236c.052,1.05.079,1.6.079,3.043v1.518c0,1.1-.012,2.7-.036,3.986l-1.417.306v1.222h6.911V527.1l-1.236-.262c-.025-1.291-.037-2.913-.037-4.03v-4.072a3.9,3.9,0,0,1,2.255-.966c1.045,0,1.467.6,1.467,2.283v2.755c0,1.138-.012,2.721-.036,3.991l-1.36.3v1.222h6.93V527.1l-1.312-.268C1284.219,525.557,1284.207,523.956,1284.207,522.809Z" transform="translate(-1223.462 -510.582)" fill="#fff"/>
            <path id="Path_4220" data-name="Path 4220" d="M1372.194,520.778c0-3.177-1.964-5.546-5.426-5.546a6.563,6.563,0,0,0-6.764,6.753c0,4.238,2.721,6.736,6.542,6.736a5.749,5.749,0,0,0,5.508-3.065l-.907-.852a4.218,4.218,0,0,1-3.184,1.41c-1.83,0-3.331-1.257-3.526-4.023h7.61A5.692,5.692,0,0,0,1372.194,520.778Zm-5.5.027h-2.264c.127-3.189,1.057-4.221,2.073-4.221.953,0,1.779.854,1.779,2.578C1368.282,520.333,1367.955,520.8,1366.695,520.8Z" transform="translate(-1296.61 -510.582)" fill="#fff"/>
            <path id="Path_4221" data-name="Path 4221" d="M1442.039,516.584c.17,0,.333.01.493.025l.17,1.327c.127,1.85.98,2.489,2.017,2.489a1.67,1.67,0,0,0,1.769-1.369c-.189-2.095-2.133-3.823-4.906-3.823-3.92,0-7.093,2.487-7.093,6.78,0,4.415,2.959,6.709,6.538,6.709a5.5,5.5,0,0,0,5.388-3.16l-.914-.808a3.783,3.783,0,0,1-2.956,1.461c-2.2,0-3.659-1.66-3.659-4.685C1438.884,517.979,1440.531,516.584,1442.039,516.584Z" transform="translate(-1357.435 -510.582)" fill="#fff"/>
            <path id="Path_4222" data-name="Path 4222" d="M1513.2,511.356a2.339,2.339,0,0,1-1.426.584c-.779,0-1.338-.559-1.338-1.792V502.8h2.753v-1.8h-2.74l.046-3.685h-2.679l-1.332,3.672-1.927.249V502.8h1.694v5c0,1.024-.027,1.727-.027,2.641,0,2.59,1.395,3.649,3.775,3.649a3.946,3.946,0,0,0,3.842-2.1Z" transform="translate(-1414.652 -495.947)" fill="#fff"/>
          </g>
        </g>
      </g>
      <g id="Group_4571" data-name="Group 4571" transform="translate(0.603 26.684)">
        <path id="Path_4223" data-name="Path 4223" d="M610.943,628.813h2.622v.486h-2.039v1.429h1.72v.493h-1.72v1.651h2.109v.492h-2.692Z" transform="translate(-610.943 -628.425)" fill="#fff"/>
        <path id="Path_4224" data-name="Path 4224" d="M646.763,634.872h.472l.049.485h.021a1.589,1.589,0,0,1,1.131-.569c.707,0,1.027.458,1.027,1.318v2.136h-.569v-2.06c0-.631-.194-.9-.638-.9-.347,0-.583.18-.923.52v2.442h-.569Z" transform="translate(-640.194 -633.305)" fill="#fff"/>
        <path id="Path_4225" data-name="Path 4225" d="M681.96,637.481a1.516,1.516,0,0,0,.992.4c.444,0,.666-.236.666-.527,0-.347-.4-.5-.77-.638-.479-.173-1.006-.4-1.006-.971,0-.541.43-.957,1.158-.957a1.683,1.683,0,0,1,1.047.382l-.271.361a1.252,1.252,0,0,0-.77-.3c-.423,0-.617.229-.617.486,0,.312.368.437.749.583.486.18,1.027.382,1.027,1.02,0,.548-.437,1.006-1.235,1.006a2.027,2.027,0,0,1-1.255-.465Z" transform="translate(-668.704 -633.305)" fill="#fff"/>
        <path id="Path_4226" data-name="Path 4226" d="M715.566,635.244h.576v2.06c0,.631.187.9.631.9.347,0,.59-.173.909-.569v-2.393h.569v3.371h-.472l-.049-.527h-.021a1.425,1.425,0,0,1-1.11.61c-.714,0-1.034-.458-1.034-1.318Z" transform="translate(-696.379 -633.676)" fill="#fff"/>
        <path id="Path_4227" data-name="Path 4227" d="M752.672,634.872h.472l.049.61h.021a1.153,1.153,0,0,1,.957-.694.837.837,0,0,1,.361.07l-.111.5a.947.947,0,0,0-.326-.055c-.284,0-.624.208-.853.777v2.164h-.569Z" transform="translate(-726.681 -633.305)" fill="#fff"/>
        <path id="Path_4228" data-name="Path 4228" d="M781.494,627.82a.4.4,0,0,1,.791,0,.4.4,0,0,1-.791,0Zm.1,1.061h.569v3.371H781.6Z" transform="translate(-750.217 -627.313)" fill="#fff"/>
        <path id="Path_4229" data-name="Path 4229" d="M807.631,634.872h.472l.049.485h.021a1.59,1.59,0,0,1,1.131-.569c.708,0,1.027.458,1.027,1.318v2.136h-.569v-2.06c0-.631-.194-.9-.638-.9-.347,0-.583.18-.923.52v2.442h-.569Z" transform="translate(-771.561 -633.305)" fill="#fff"/>
        <path id="Path_4230" data-name="Path 4230" d="M843.679,638.126V638.1a.622.622,0,0,1-.3-.548.79.79,0,0,1,.368-.624V636.9a1.19,1.19,0,0,1,.832-2.109,1.344,1.344,0,0,1,.478.083h1.172v.437h-.694a.978.978,0,0,1,.277.694,1.157,1.157,0,0,1-1.235,1.172,1.178,1.178,0,0,1-.507-.118.511.511,0,0,0-.215.4c0,.215.139.368.6.368h.652c.784,0,1.179.243,1.179.8,0,.624-.659,1.165-1.706,1.165-.826,0-1.394-.326-1.394-.909A.973.973,0,0,1,843.679,638.126Zm.985,1.276c.645,0,1.068-.333,1.068-.687,0-.312-.243-.416-.68-.416h-.583a1.641,1.641,0,0,1-.437-.056.711.711,0,0,0-.347.569C843.686,639.173,844.054,639.4,844.664,639.4Zm.631-3.413a.718.718,0,1,0-1.429,0,.72.72,0,1,0,1.429,0Z" transform="translate(-800.596 -633.305)" fill="#fff"/>
        <path id="Path_4231" data-name="Path 4231" d="M901.475,628.813h.6l.479,2.476c.09.493.18.978.27,1.471h.028c.1-.492.208-.985.319-1.471l.631-2.476h.527l.631,2.476c.1.479.215.978.326,1.471h.028c.09-.492.173-.985.257-1.471l.479-2.476h.562l-.944,4.551h-.7l-.687-2.74c-.076-.354-.153-.68-.215-1.034h-.028c-.076.354-.153.68-.229,1.034l-.68,2.74h-.687Z" transform="translate(-848.195 -628.425)" fill="#fff"/>
        <path id="Path_4232" data-name="Path 4232" d="M949.825,634.789a1.783,1.783,0,1,1-1.561,1.776A1.611,1.611,0,0,1,949.825,634.789Zm0,3.066c.583,0,.971-.52.971-1.29s-.388-1.3-.971-1.3-.971.527-.971,1.3S949.249,637.855,949.825,637.855Z" transform="translate(-886.403 -633.305)" fill="#fff"/>
        <path id="Path_4233" data-name="Path 4233" d="M986.391,634.872h.472l.049.61h.021a1.153,1.153,0,0,1,.957-.694.837.837,0,0,1,.361.07l-.111.5a.949.949,0,0,0-.326-.055c-.284,0-.624.208-.853.777v2.164h-.569Z" transform="translate(-917.538 -633.305)" fill="#fff"/>
        <path id="Path_4234" data-name="Path 4234" d="M1015.78,626.7h.562v3.344h.021l1.436-1.776h.631l-1.131,1.353,1.283,2.019h-.624l-.985-1.623-.631.735v.888h-.562Z" transform="translate(-941.538 -626.695)" fill="#fff"/>
        <path id="Path_4235" data-name="Path 4235" d="M1051.337,638.528v1.138h-.569v-4.793h.472l.049.388h.021a1.745,1.745,0,0,1,1.075-.472c.867,0,1.332.673,1.332,1.72,0,1.145-.687,1.818-1.457,1.818a1.563,1.563,0,0,1-.937-.388Zm.826-.68c.555,0,.964-.506.964-1.339,0-.742-.25-1.242-.888-1.242a1.422,1.422,0,0,0-.9.458v1.769A1.334,1.334,0,0,0,1052.162,637.848Z" transform="translate(-970.109 -633.305)" fill="#fff"/>
        <path id="Path_4236" data-name="Path 4236" d="M1088.025,626.7h.569V631c0,.18.077.25.16.25a.475.475,0,0,0,.125-.014l.076.43a.768.768,0,0,1-.326.055c-.43,0-.6-.271-.6-.763Z" transform="translate(-1000.534 -626.695)" fill="#fff"/>
        <path id="Path_4237" data-name="Path 4237" d="M1115.1,636.107c0-.43-.146-.846-.694-.846a1.814,1.814,0,0,0-1.006.361l-.229-.4a2.5,2.5,0,0,1,1.325-.437c.826,0,1.172.548,1.172,1.388v2.067h-.472l-.048-.4h-.014a1.832,1.832,0,0,1-1.117.486.919.919,0,0,1-.992-.957C1113.027,636.634,1113.665,636.267,1115.1,636.107Zm-.923,1.762a1.381,1.381,0,0,0,.923-.451v-.937c-1.131.139-1.512.416-1.512.846A.517.517,0,0,0,1114.178,637.869Z" transform="translate(-1020.951 -633.305)" fill="#fff"/>
        <path id="Path_4238" data-name="Path 4238" d="M1149.827,634.789a1.389,1.389,0,0,1,.985.4l-.284.368a1.019,1.019,0,0,0-.68-.3c-.61,0-1.054.527-1.054,1.3s.423,1.29,1.041,1.29a1.2,1.2,0,0,0,.791-.34l.257.375a1.671,1.671,0,0,1-1.1.437,1.583,1.583,0,0,1-1.581-1.762A1.633,1.633,0,0,1,1149.827,634.789Z" transform="translate(-1049.677 -633.305)" fill="#fff"/>
        <path id="Path_4239" data-name="Path 4239" d="M1182.435,634.789c.86,0,1.346.618,1.346,1.582a2.009,2.009,0,0,1-.021.312h-2.276a1.122,1.122,0,0,0,1.124,1.186,1.523,1.523,0,0,0,.839-.264l.2.375a2.008,2.008,0,0,1-1.11.347,1.783,1.783,0,0,1-.1-3.538Zm.846,1.519c0-.687-.305-1.068-.832-1.068a1.052,1.052,0,0,0-.971,1.068Z" transform="translate(-1076.395 -633.305)" fill="#fff"/>
        <path id="Path_4240" data-name="Path 4240" d="M1238.87,628.813h.6l.479,2.476c.09.493.18.978.271,1.471h.028c.1-.492.208-.985.319-1.471l.631-2.476h.527l.631,2.476c.1.479.215.978.326,1.471h.028c.09-.492.173-.985.257-1.471l.479-2.476H1244l-.943,4.551h-.7l-.687-2.74c-.076-.354-.153-.68-.215-1.034h-.028c-.076.354-.153.68-.229,1.034l-.68,2.74h-.687Z" transform="translate(-1123.716 -628.425)" fill="#fff"/>
        <path id="Path_4241" data-name="Path 4241" d="M1287.171,634.789c.86,0,1.346.618,1.346,1.582a2.009,2.009,0,0,1-.021.312h-2.275a1.122,1.122,0,0,0,1.124,1.186,1.523,1.523,0,0,0,.839-.264l.2.375a2.007,2.007,0,0,1-1.11.347,1.783,1.783,0,0,1-.1-3.538Zm.846,1.519c0-.687-.305-1.068-.833-1.068a1.052,1.052,0,0,0-.971,1.068Z" transform="translate(-1161.924 -633.305)" fill="#fff"/>
        <path id="Path_4242" data-name="Path 4242" d="M1322.046,626.7h.569V631c0,.18.077.25.16.25a.475.475,0,0,0,.125-.014l.076.43a.767.767,0,0,1-.326.055c-.43,0-.6-.271-.6-.763Z" transform="translate(-1191.638 -626.695)" fill="#fff"/>
        <path id="Path_4243" data-name="Path 4243" d="M1347.956,626.7h.569V631c0,.18.076.25.16.25a.474.474,0,0,0,.125-.014l.076.43a.766.766,0,0,1-.326.055c-.43,0-.6-.271-.6-.763Z" transform="translate(-1212.797 -626.695)" fill="#fff"/>
        <path id="Path_4244" data-name="Path 4244" d="M1372.314,642.96h1.6v.437h-1.6Z" transform="translate(-1232.688 -639.977)" fill="#fff"/>
        <path id="Path_4245" data-name="Path 4245" d="M1401.894,626.7h.569v1.346l-.014.61a1.666,1.666,0,0,1,1.054-.472c.874,0,1.339.673,1.339,1.714,0,1.151-.687,1.824-1.457,1.824a1.525,1.525,0,0,1-.964-.416h-.021l-.048.333h-.458Zm1.394,4.544c.555,0,.964-.506.964-1.339,0-.742-.25-1.241-.888-1.241a1.39,1.39,0,0,0-.9.458v1.769A1.319,1.319,0,0,0,1403.288,631.239Z" transform="translate(-1256.843 -626.695)" fill="#fff"/>
        <path id="Path_4246" data-name="Path 4246" d="M1439.3,634.789c.86,0,1.346.618,1.346,1.582a2,2,0,0,1-.021.312h-2.275a1.122,1.122,0,0,0,1.124,1.186,1.524,1.524,0,0,0,.84-.264l.2.375a2.008,2.008,0,0,1-1.11.347,1.783,1.783,0,0,1-.1-3.538Zm.846,1.519c0-.687-.305-1.068-.832-1.068a1.052,1.052,0,0,0-.971,1.068Z" transform="translate(-1286.155 -633.305)" fill="#fff"/>
        <path id="Path_4247" data-name="Path 4247" d="M1473.608,627.82a.4.4,0,0,1,.791,0,.4.4,0,0,1-.791,0Zm.1,1.061h.569v3.371h-.569Z" transform="translate(-1315.405 -627.313)" fill="#fff"/>
        <path id="Path_4248" data-name="Path 4248" d="M1499.745,634.872h.472l.049.485h.021a1.589,1.589,0,0,1,1.131-.569c.708,0,1.027.458,1.027,1.318v2.136h-.569v-2.06c0-.631-.194-.9-.638-.9-.347,0-.583.18-.923.52v2.442h-.569Z" transform="translate(-1336.749 -633.305)" fill="#fff"/>
        <path id="Path_4249" data-name="Path 4249" d="M1535.793,638.126V638.1a.622.622,0,0,1-.3-.548.79.79,0,0,1,.368-.624V636.9a1.19,1.19,0,0,1,.832-2.109,1.345,1.345,0,0,1,.479.083h1.172v.437h-.694a.978.978,0,0,1,.277.694,1.157,1.157,0,0,1-1.235,1.172,1.178,1.178,0,0,1-.506-.118.511.511,0,0,0-.215.4c0,.215.139.368.6.368h.652c.784,0,1.179.243,1.179.8,0,.624-.659,1.165-1.706,1.165-.826,0-1.394-.326-1.394-.909A.973.973,0,0,1,1535.793,638.126Zm.985,1.276c.645,0,1.069-.333,1.069-.687,0-.312-.243-.416-.68-.416h-.583a1.64,1.64,0,0,1-.437-.056.711.711,0,0,0-.347.569C1535.8,639.173,1536.168,639.4,1536.778,639.4Zm.631-3.413a.718.718,0,1,0-1.429,0,.72.72,0,1,0,1.429,0Z" transform="translate(-1365.785 -633.305)" fill="#fff"/>
      </g>
    </g>
  </g>
</svg>
