<svg id="settings-icon" xmlns="http://www.w3.org/2000/svg" width="25" height="25" viewBox="0 0 40 40">
  <g id="Setting" transform="translate(4.166 3.333)">
    <path id="Setting-2" data-name="Setting" d="M14.8,33.333a4.413,4.413,0,0,1-3.144-1.3,4.1,4.1,0,0,1-1.226-2.911l-.015-.246a1.75,1.75,0,0,0-.246-.7,1.864,1.864,0,0,0-1.146-.864,1.9,1.9,0,0,0-.476-.062,2.063,2.063,0,0,0-1.024.285l-.3.145a4.458,4.458,0,0,1-2.99.213,4.349,4.349,0,0,1-2.617-2.024l-1.062-1.8-.141-.265a4.22,4.22,0,0,1,1.714-5.5l.177-.108a1.861,1.861,0,0,0,.822-1.538,1.9,1.9,0,0,0-1-1.647l-.26-.162A4.219,4.219,0,0,1,.6,9.179L1.682,7.435a4.418,4.418,0,0,1,3.8-2.152A4.341,4.341,0,0,1,7.6,5.837l.222.115a1.8,1.8,0,0,0,.71.159,1.894,1.894,0,0,0,1.911-1.875l.014-.323a4.244,4.244,0,0,1,1.254-2.656A4.431,4.431,0,0,1,14.8,0h2.058A4.444,4.444,0,0,1,20,1.3a4.164,4.164,0,0,1,1.235,3l.013.246a1.7,1.7,0,0,0,.24.691,1.9,1.9,0,0,0,1.626.917,2.035,2.035,0,0,0,1.026-.286l.273-.138a4.425,4.425,0,0,1,5.646,1.74L31.078,9.2a1.272,1.272,0,0,1,.072.142l.095.186a4.245,4.245,0,0,1-1.473,5.34l-.429.264a1.84,1.84,0,0,0-.55.593A1.81,1.81,0,0,0,28.6,17.14,1.9,1.9,0,0,0,29.53,18.3l.278.175a4.269,4.269,0,0,1,1.713,2.4,4.176,4.176,0,0,1-.453,3.263l-1.1,1.8-.165.252a4.42,4.42,0,0,1-3.6,1.845,4.3,4.3,0,0,1-2.111-.551l-.228-.115a1.958,1.958,0,0,0-.725-.167h-.012a1.906,1.906,0,0,0-1.337.543,1.879,1.879,0,0,0-.555,1.38l-.014.287a4.362,4.362,0,0,1-4.359,3.93ZM9.664,24.981a4.328,4.328,0,0,1,2.635,1.98,4.138,4.138,0,0,1,.571,1.7l.033.589a1.892,1.892,0,0,0,1.9,1.668h2.058a1.882,1.882,0,0,0,1.9-1.67l.009-.181a4.256,4.256,0,0,1,1.276-3.039,4.4,4.4,0,0,1,3.1-1.25h.024a4.522,4.522,0,0,1,1.746.4l.527.264a1.953,1.953,0,0,0,.774.159,1.867,1.867,0,0,0,1.53-.762l.122-.184,1.074-1.753a1.837,1.837,0,0,0-.505-2.426l-.455-.282a4.268,4.268,0,0,1-1.77-2.436,4.212,4.212,0,0,1,.441-3.242,4.32,4.32,0,0,1,1.321-1.4l.267-.165a1.841,1.841,0,0,0,.789-2.363l-.119-.222-.021-.047L27.922,8.67a1.935,1.935,0,0,0-1.663-.945,1.82,1.82,0,0,0-.57.09l-.184.073-.173.086a4.447,4.447,0,0,1-3.306.453,4.374,4.374,0,0,1-2.661-1.966,4.138,4.138,0,0,1-.572-1.7l-.021-.42a1.861,1.861,0,0,0-.54-1.359,1.936,1.936,0,0,0-1.365-.565H14.8a1.9,1.9,0,0,0-1.342.546,1.838,1.838,0,0,0-.543,1.1l-.023.508A4.336,4.336,0,0,1,6.742,8.116l-.321-.165A1.926,1.926,0,0,0,5.477,7.7,1.954,1.954,0,0,0,3.8,8.666L2.72,10.407a1.832,1.832,0,0,0,.519,2.442l.435.27A4.25,4.25,0,0,1,5.6,16.667a4.3,4.3,0,0,1-1.926,3.549l-.26.16a1.823,1.823,0,0,0-.788,2.355l.093.177,1.05,1.773a1.893,1.893,0,0,0,1.147.892,2.013,2.013,0,0,0,.536.072,1.814,1.814,0,0,0,.72-.142l.182-.087a4.414,4.414,0,0,1,3.312-.435Zm.616-8.315a5.561,5.561,0,1,1,5.559,5.448A5.509,5.509,0,0,1,10.28,16.667Zm2.463,0a3.1,3.1,0,1,0,3.1-3.033A3.07,3.07,0,0,0,12.743,16.667Z" transform="translate(0)" fill="#fff"/>
  </g>
</svg>
