<svg xmlns="http://www.w3.org/2000/svg" width="25" height="25" viewBox="0 0 40 40">
  <g id="notification-icons" transform="translate(22948 20227)">
    <rect id="Rectangle_17373" data-name="Rectangle 17373" width="40" height="40" transform="translate(-22948 -20227)" fill="none"/>
    <g id="Iconly_Light-outline_Notification" data-name="Iconly/Light-outline/Notification" transform="translate(-22948 -20227)">
      <g id="Notification" transform="translate(5.833 3.333)">
        <path id="Notification-2" data-name="Notification" d="M13.409,33.292a5.822,5.822,0,0,1-3.884-2.178,1.172,1.172,0,0,1,.182-1.634,1.138,1.138,0,0,1,1.614.185,3.526,3.526,0,0,0,2.357,1.317,3.567,3.567,0,0,0,2.628-.743,3.186,3.186,0,0,0,.592-.579,1.141,1.141,0,0,1,1.616-.177,1.172,1.172,0,0,1,.175,1.635,5.484,5.484,0,0,1-.994.972,5.82,5.82,0,0,1-4.286,1.2Zm-6.72-6.882a8.169,8.169,0,0,1-5.144-2.539A6.766,6.766,0,0,1,0,19.437l0-.4a6.825,6.825,0,0,1,1.113-3.408l.111-.144a6.431,6.431,0,0,0,1.548-3.035l-.026.1,0-.891.019-.993c.015-.436.039-.831.071-1.2A9.968,9.968,0,0,1,6.558,2.712,11.884,11.884,0,0,1,14.108,0h.12a11.9,11.9,0,0,1,7.549,2.711,10.036,10.036,0,0,1,3.729,6.765c.028.33.042.632.047,1.079v1.122c0,.183,0,.346.007.513l.015.327.075.312a6.5,6.5,0,0,0,1.211,2.385l.25.3.1.132A6.737,6.737,0,0,1,28.334,19.1v.672a6.772,6.772,0,0,1-1.61,4.161,7.976,7.976,0,0,1-5.077,2.478,69.391,69.391,0,0,1-7.488.406A69.33,69.33,0,0,1,6.689,26.411ZM2.978,17v0l-.129.214a4.473,4.473,0,0,0-.522,1.565L2.3,19.1l0,.365a4.428,4.428,0,0,0,.959,2.859A5.821,5.821,0,0,0,6.92,24.1a67.418,67.418,0,0,0,7.237.392,67.562,67.562,0,0,0,7.261-.393,5.724,5.724,0,0,0,3.6-1.718,4.444,4.444,0,0,0,1.022-2.957v-.271a4.3,4.3,0,0,0-.725-2.205l.026.042-.229-.27a8.834,8.834,0,0,1-1.689-3.327l-.108-.46-.021-.155c-.018-.245-.027-.444-.031-.668l0-1.508c0-.379-.014-.636-.036-.912C22.83,5.628,18.8,2.325,14.228,2.325h-.12c-4.572,0-8.6,3.3-8.975,7.353-.018.2-.033.426-.048.7l-.025.779-.012,1.531-.024.237A8.766,8.766,0,0,1,2.99,16.986h0Z" transform="translate(0)" fill="#fff"/>
      </g>
    </g>
  </g>
</svg>
